<svg xmlns="http://www.w3.org/2000/svg" viewBox="0 0 320 360" height="360" width="320">
	<g>
		<path xmlns="http://www.w3.org/2000/svg" d="M20.961 227.22l3.726 4.658-1.863-6.056c-0.466-2.795-3.726 0.466-1.863 1.398M25.153 224.425c1.397 2.329 2.795 4.658 2.795 6.987 0 3.261 2.795 4.658 5.123 5.589-3.261-3.726-5.124-13.974-7.918-12.576M204.017 26.929c7.918 0 15.371-0.932 23.756 0.931 20.495 5.124 37.729 15.371 49.374 29.811l32.606 52.169c1.397 13.042 4.192 27.482 3.726 43.319 3.261 0 2.795-4.658 6.521-5.59-3.726 9.316-5.59 20.961-6.521 34.469-2.329-7.453 0-18.632 0.466-24.687-3.261 5.124-5.124 1.397-5.124-0.932 0.466-3.726-1.397-3.261-2.795-4.658-5.124-4.658-8.384-9.782-12.11-17.7 2.329-6.055 2.795-14.905-4.658-19.563-2.329-1.397-5.124-3.726-6.521-7.453-1.863-5.124-5.124-11.179-4.193-19.097 0.466-2.329-6.987 5.124-11.179 1.863-18.166-12.576-36.332-27.016-58.224-39.127-11.645 0-20.029-4.192-24.221-9.316-3.726-4.658-0.932-10.713 4.658-11.179 3.261 0 6.987-0.932 9.782 0.932 0.466-1.863 2.329-4.192 4.657-4.192M157.904 16.215l0.932 0.466c4.658 0.932 6.987 7.453 12.11 5.124 0 3.261 0.466 6.521-0.466 8.85-1.397 3.726-5.59 3.726-8.85 3.726-31.208-1.863-49.374 11.179-68.471 22.358-5.124 3.261-10.713 5.59-14.906 9.782-20.029 18.632-41.921 35.866-47.045 70.335l-4.192 38.195c-0.466 4.192-5.124 8.384-4.192 13.508l3.26 22.824c-3.261-3.261-5.124 0.932-4.192 2.795 0.466 1.397 2.329 6.055 5.124 1.863 3.726 6.987 7.453 20.495 12.576 26.55 15.837 18.632 36.332 35.4 53.101 52.169 4.192-0.932 7.453-0.932 8.384-3.727 1.397 2.795-1.397 5.59-3.726 6.056 7.453 4.658 15.837 8.85 27.016 9.781 14.44 0.932 27.948 3.261 40.524 6.522 6.521-1.863 13.042-2.795 20.029-3.261 2.329 0 3.726-3.726 6.521-4.658l0.466-4.658c2.795 4.192 2.329-1.397 0.466-4.192 3.261 2.795 4.192 5.124 5.589 6.987 0-1.397 3.726-6.521 3.727-0.466l0.931-6.055c1.397-0.932 1.863 5.124 3.261 0.931 1.397-4.192 4.192-0.932 6.987-2.329-0.932 1.863-0.466 5.59 2.794 3.261l3.727-3.261c2.329 5.59 6.055 3.261 7.918 2.329 20.495-13.042 40.99-28.413 60.553-43.784l-0.466 6.055 2.329-7.453c2.329 2.329 4.192 0.466 5.124-0.931 2.795-4.658 6.521-9.316 12.577-13.508-7.453 20.029-16.303 35.866-27.482 48.908l-4.658 5.59c0 3.261-0.932 7.453-4.658 7.918-1.863 0.466-5.59-0.932-8.384 1.863-1.397 1.863 3.261 5.59-0.466 2.795-3.261-2.329-6.521 0-10.248 0.932-2.795 0.932 1.863 3.726 2.795 5.589 0.932 1.863 1.863 3.726 1.398 6.056l-5.124-5.59c-6.055 3.261-9.782 9.316-14.906 13.974-2.329 1.863-1.397 5.124-1.397 7.918-3.261 0-6.987-0.932-8.85 0.932-1.397 1.863-0.932 4.658-0.932 7.453-4.658-0.466-5.124-7.453-9.315-6.056-4.192 0.932-8.85 1.397-12.577 3.727 2.795 5.59-4.658 2.329-3.726 3.26-6.987-4.192-13.042-7.453-20.495-4.658-15.837-5.124-35.4-2.795-49.84-0.931 0-2.329 0.466-4.658-0.466-5.124-0.932 2.329-3.726 1.397-3.26 1.397-8.85-6.055-17.7-9.782-27.016-14.905-8.384 0.932-16.303-3.261-18.632-5.59-6.521-6.055-13.974-2.795-20.029-4.192-13.042-3.261-17.7-16.769-19.098-26.084-0.932-4.658-4.658-6.521-6.055-6.056-6.055-19.563-15.371-37.263-22.824-55.429-1.863-4.658-1.397-9.316-1.397-14.44 2.329 0.932 4.658 0.466 4.192-2.794-2.329-15.371-7.918-27.016-13.974-38.195 3.261-15.837 3.726-34.469 11.179-48.443 6.521-12.576 18.632-19.098 27.016-29.811 2.795-3.726 2.795-8.85 5.59-12.11 9.316-9.316 18.632-19.098 28.879-27.482 4.658-3.726 10.247 0 17.234-1.397 2.329-8.384 11.645-15.837 20.495-13.508 3.726 0.932 11.179-8.85 13.508-9.782 3.726-1.397 1.863 3.726 1.863 6.987 8.85-6.987 20.961-10.713 32.14-14.906" fill="#000000" fill-rule="nonzero" stroke="none" stroke-width="1" stroke-linecap="butt" stroke-linejoin="miter" stroke-miterlimit="10" stroke-dasharray="" stroke-dashoffset="0" font-family="none" font-weight="none" font-size="none" text-anchor="none" style="mix-blend-mode: normal" data-fill-palette-color="tertiary" />
	</g>
	<g transform="matrix(1,0,0,1,90.55170962418173,90)">
		<svg viewBox="0 0 138.89658075163655 180" height="180" width="138.89658075163655">
			<g>
				<svg viewBox="0 0 138.89658075163655 180" height="180" width="138.89658075163655">
					<g>
						<svg viewBox="0 0 192 248.81822009569373" height="180" width="138.89658075163655">
							<g transform="matrix(1,0,0,1,0,150.39033219412164)">
								<svg viewBox="0 0 192 98.42788790157209" height="98.42788790157209" width="192">
									<g id="textblocktransform">
										<svg viewBox="0 0 192 98.42788790157209" height="98.42788790157209" width="192" id="textblock">
											<g>
												<svg viewBox="0 0 192 98.42788790157209" height="98.42788790157209" width="192">
													<g transform="matrix(1,0,0,1,0,0)">
														<svg width="192" viewBox="3.0999999046325684 -37.5 73.13999938964844 37.5" height="98.42788790157209" data-palette-color="#000000">
															<path d="M19.7 0L3.1 0 3.1-35 7.75-35 7.75-4.65 19.7-4.65 19.7 0ZM37.7 0L27.25 0Q25.7 0 24.65-1.05 23.6-2.1 23.6-3.65L23.6-3.65 23.6-25 28.3-25 28.3-6.5Q28.3-5.8 28.85-5.25 29.4-4.7 30.1-4.7L30.1-4.7 33-4.7 33-25 37.7-25 37.7 0ZM49.6 0L44.9 0 40.2-25 44.9-25 47.25-12.5 49.6-25 54.3-25 49.6 0ZM61.49-32.8L56.79-31.7 56.79-36.4 61.49-37.5 61.49-32.8ZM61.59 0L56.89 0 56.89-23.9 61.59-25 61.59 0ZM70.29 0L65.59 0 65.59-36.4 70.29-37.45 70.29-25 76.24-25 75.14-20.3 70.29-20.3 70.29 0Z" opacity="1" transform="matrix(1,0,0,1,0,0)" fill="#000000" class="wordmark-text-0" data-fill-palette-color="primary" id="text-0" />
														</svg>
													</g>
												</svg>
											</g>
										</svg>
									</g>
								</svg>
							</g>
							<g transform="matrix(1,0,0,1,37.28422791849793,0)">
								<svg viewBox="0 0 117.43154416300413 136.02734107997264" height="136.02734107997264" width="117.43154416300413">
									<g>
										<svg xmlns="http://www.w3.org/2000/svg" xmlns:xlink="http://www.w3.org/1999/xlink" version="1.1" x="0" y="0" viewBox="9.63800048828125 3.246999979019165 80.7239990234375 93.50699615478516" enable-background="new 0 0 100 100" xml:space="preserve" height="136.02734107997264" width="117.43154416300413" class="icon-icon-0" data-fill-palette-color="accent" id="icon-0">
											<g fill="#000000" data-fill-palette-color="accent">
												<g fill="#000000" data-fill-palette-color="accent">
													<polygon points="36.703,11.011 9.638,26.636 9.638,38.757 36.703,23.131 63.767,38.757 63.767,26.636   " fill="#000000" data-fill-palette-color="accent" />
												</g>
												<g fill="#000000" data-fill-palette-color="accent">
													<polygon points="63.298,89.092 36.233,73.467 36.233,61.348 63.298,76.973 90.362,61.348 90.362,73.467   " fill="#000000" data-fill-palette-color="accent" />
												</g>
												<g fill="#000000" data-fill-palette-color="accent">
													<polygon points="9.638,42.012 36.703,26.386 47.198,32.446 20.134,48.072 20.134,79.324 9.638,73.264   " fill="#000000" data-fill-palette-color="accent" />
												</g>
												<g fill="#000000" data-fill-palette-color="accent">
													<polygon points="77.083,18.872 50.018,3.247 39.522,9.307 66.586,24.932 66.586,56.184 77.083,50.124   " fill="#000000" data-fill-palette-color="accent" />
												</g>
												<g fill="#000000" data-fill-palette-color="accent">
													<polygon points="23.01,81.127 23.011,49.876 33.507,43.816 33.507,75.068 60.571,90.693 50.075,96.754   " fill="#000000" data-fill-palette-color="accent" />
												</g>
												<g fill="#000000" data-fill-palette-color="accent">
													<polygon points="90.362,58.092 90.362,26.84 79.866,20.78 79.866,52.031 52.802,67.658 63.298,73.719   " fill="#000000" data-fill-palette-color="accent" />
												</g>
											</g>
										</svg>
									</g>
								</svg>
							</g>
							<g />
						</svg>
					</g>
				</svg>
			</g>
		</svg>
	</g>
</svg>
